<svg width="13" height="14" viewBox="0 0 13 14" fill="none" xmlns="http://www.w3.org/2000/svg">
<path fill-rule="evenodd" clip-rule="evenodd" d="M8.74414 4.60896C9.6926 5.28641 10.8541 5.68504 12.1086 5.68504V3.78561C11.4084 3.63658 10.7884 3.27078 10.3223 2.76203C9.52452 2.26444 8.94965 1.44352 8.78114 0.482666H7.0224V10.1206C7.01842 11.2441 6.10608 12.1539 4.98105 12.1539C4.31807 12.1539 3.72908 11.838 3.35609 11.3488C2.68999 11.0128 2.23321 10.323 2.23321 9.52629C2.23321 8.39952 3.14702 7.48606 4.27449 7.48606C4.49048 7.48606 4.69868 7.51967 4.89397 7.58162V5.66148C2.47278 5.71147 0.525513 7.6888 0.525513 10.1206C0.525513 11.3346 1.01044 12.4351 1.79741 13.2391C2.50743 13.7157 3.36215 13.9935 4.28168 13.9935C6.74619 13.9935 8.74414 11.9966 8.74414 9.5333V4.60896Z" fill="#FFF06A"/>
</svg>
