<svg width="18" height="18" viewBox="0 0 18 18" fill="none" xmlns="http://www.w3.org/2000/svg">
<path fill-rule="evenodd" clip-rule="evenodd" d="M5.33877 0.495335C1.67894 0.85973 0.802776 2.12924 0.793347 7.0819L0.790039 8.78742L2.40277 8.6852C4.82716 8.53154 6.29301 8.17839 7.1179 7.54918C8.41404 6.56053 9.06046 4.54023 9.06046 1.47753V0.331581L7.77854 0.355896C7.07341 0.369129 5.97559 0.431984 5.33877 0.495335ZM9.39128 1.3457C9.39128 5.36231 10.3627 7.4673 12.5521 8.19444C13.1816 8.40351 16.1375 8.75318 17.3722 8.76476C17.6294 8.76708 17.6614 8.57868 17.6584 7.07197C17.6539 4.7852 17.4106 3.2522 16.9045 2.32227C16.1778 0.986929 15.0463 0.576716 11.5963 0.39791L9.39128 0.283447V1.3457ZM0.793347 10.6283C0.797813 12.915 1.04113 14.448 1.54728 15.378C2.27392 16.7133 3.40548 17.1235 6.8554 17.3023L9.06046 17.4168V16.2468C9.06046 12.3305 8.07463 10.2281 5.89967 9.50579C5.27013 9.29672 2.31428 8.94704 1.0795 8.93546C0.822294 8.93315 0.79037 9.12155 0.793347 10.6283ZM15.0152 9.09674C12.2474 9.32368 10.9311 10.0081 10.1545 11.624C9.69794 12.5741 9.39128 14.4315 9.39128 16.2468V17.4168L11.5963 17.3023C14.8933 17.1315 15.9626 16.7714 16.7916 15.5535C17.3691 14.7051 17.508 13.9968 17.6126 11.3726L17.7098 8.93282L17.0654 8.95713C16.7111 8.97053 15.7884 9.03339 15.0152 9.09674Z" fill="#FFF06A"/>
</svg>
