<svg width="18" height="13" viewBox="0 0 18 13" fill="none" xmlns="http://www.w3.org/2000/svg">
<path d="M17.3914 2.63914C17.2916 2.28757 17.1014 1.96726 16.839 1.70916C16.5766 1.45106 16.251 1.26391 15.8936 1.16579C14.5522 0.812266 9.1537 0.812266 9.1537 0.812266C9.1537 0.812266 3.7688 0.80521 2.41379 1.16579C2.0564 1.26391 1.73078 1.45106 1.46841 1.70916C1.20603 1.96726 1.01578 2.28757 0.916037 2.63914C0.661763 3.99008 0.536405 5.36144 0.541598 6.73533C0.537387 8.10404 0.662741 9.47015 0.916037 10.816C1.01578 11.1676 1.20603 11.4879 1.46841 11.746C1.73078 12.0041 2.0564 12.1912 2.41379 12.2894C3.75374 12.6436 9.1537 12.6436 9.1537 12.6436C9.1537 12.6436 14.5379 12.6436 15.8936 12.2894C16.251 12.1912 16.5766 12.0041 16.839 11.746C17.1014 11.4879 17.2916 11.1676 17.3914 10.816C17.6394 9.46967 17.7594 8.10355 17.75 6.73533C17.7604 5.36193 17.6403 3.99057 17.3914 2.63914ZM7.4307 9.26925V4.19365L11.924 6.73533L7.4307 9.26925Z" fill="#FFF06A"/>
</svg>
