<svg width="17" height="10" viewBox="0 0 17 10" fill="none" xmlns="http://www.w3.org/2000/svg">
<path d="M8.28767 9.95233H9.30555C9.30555 9.95233 9.61226 9.91795 9.7688 9.74459C9.91755 9.58294 9.91755 9.28377 9.91755 9.28377C9.91755 9.28377 9.89559 7.87423 10.5331 7.66723C11.1614 7.46169 11.9583 9.02775 12.8076 9.62975C13.4564 10.0898 13.9444 9.99109 13.9444 9.99109L16.2189 9.95891C16.2189 9.95891 17.4103 9.8821 16.8472 8.91584C16.804 8.83904 16.5278 8.20266 15.1677 6.89699C13.7426 5.53574 13.9338 5.75518 15.6466 3.39547C16.6871 1.95814 17.1128 1.07965 16.9747 0.706602C16.8571 0.355498 16.0822 0.442543 16.0822 0.442543L13.5308 0.465218C13.5308 0.465218 13.3395 0.442542 13.2014 0.53105C13.0633 0.618094 12.979 0.817053 12.979 0.817053C12.979 0.817053 12.5738 1.93546 12.0326 2.87979C10.883 4.87596 10.4261 4.98567 10.2455 4.85401C9.81767 4.56801 9.92747 3.6983 9.92747 3.07509C9.92747 1.14329 10.2136 0.332091 9.37425 0.123624C9.098 0.0570604 8.89188 0.013904 8.18071 0.00220054C7.26695 -0.00803998 6.49628 0.00951511 6.05924 0.229686C5.77236 0.378174 5.54923 0.706601 5.67744 0.723425C5.84744 0.745369 6.22924 0.830219 6.43111 1.11622C6.69674 1.48634 6.68541 2.3129 6.68541 2.3129C6.68541 2.3129 6.83487 4.59215 6.33549 4.87522C5.98486 5.06687 5.51736 4.67041 4.49735 2.8593C3.97672 1.93766 3.58289 0.906292 3.58289 0.906292C3.58289 0.906292 3.50851 0.719037 3.3711 0.609317C3.2103 0.488625 2.97655 0.444737 2.97655 0.444737L0.543413 0.466681C0.543413 0.466681 0.182161 0.478385 0.0553688 0.642233C-0.0622152 0.784869 0.0440354 1.09208 0.0440354 1.09208C0.0440354 1.09208 1.94663 5.69081 4.10423 8.00663C6.08049 10.1293 8.32308 9.99256 8.32308 9.99256L8.28767 9.95233Z" fill="#FFF06A"/>
</svg>
