<svg width="14" height="14" viewBox="0 0 14 14" fill="none" xmlns="http://www.w3.org/2000/svg">
<path fill-rule="evenodd" clip-rule="evenodd" d="M0.320435 4.35759C0.320435 1.98144 2.24669 0.0551758 4.62285 0.0551758H9.64233C12.0185 0.0551758 13.9447 1.98143 13.9447 4.35759V9.37707C13.9447 11.7532 12.0185 13.6795 9.64233 13.6795H4.62285C2.24669 13.6795 0.320435 11.7532 0.320435 9.37707V4.35759ZM12.2417 2.6097C12.2417 3.07998 11.8605 3.46122 11.3902 3.46122C10.9199 3.46122 10.5387 3.07998 10.5387 2.6097C10.5387 2.13942 10.9199 1.75818 11.3902 1.75818C11.8605 1.75818 12.2417 2.13942 12.2417 2.6097ZM9.40332 6.86734C9.40332 8.12143 8.38668 9.13806 7.1326 9.13806C5.87851 9.13806 4.86188 8.12143 4.86188 6.86734C4.86188 5.61326 5.87851 4.59662 7.1326 4.59662C8.38668 4.59662 9.40332 5.61326 9.40332 6.86734ZM10.5387 6.86734C10.5387 8.74847 9.01372 10.2734 7.1326 10.2734C5.25147 10.2734 3.72652 8.74847 3.72652 6.86734C3.72652 4.98622 5.25147 3.46126 7.1326 3.46126C9.01372 3.46126 10.5387 4.98622 10.5387 6.86734Z" fill="#FFF06A"/>
</svg>
