<svg width="23" height="23" viewBox="0 0 23 23" fill="none" xmlns="http://www.w3.org/2000/svg">
<circle cx="11.5" cy="11.5" r="11.5" fill="#612B1C"/>
<path d="M1.00169 19.7944C2.30515 18.5139 3.29989 17.5305 3.98592 16.8445C5.31224 15.4953 6.10118 14.4091 6.35272 13.5859C6.48993 13.1514 6.63857 12.2939 6.79864 11.0133C7.14165 8.33775 7.97632 7 9.30264 7C10.6518 7 11.3264 7.69746 11.3264 9.09239C11.3264 10.716 10.183 12.7398 7.89629 15.1637C4.69482 18.571 2.60243 20.2747 1.61912 20.2747C1.18463 20.2747 0.978824 20.1146 1.00169 19.7944ZM8.92533 19.7944C9.61136 19.1541 10.6061 18.1937 11.9096 16.9131C13.1901 15.6325 13.9791 14.5234 14.2764 13.5859C14.4364 13.0599 14.5965 12.191 14.7566 10.979C15.0996 8.32632 15.9228 7 17.2263 7C18.6441 7 19.353 7.69746 19.353 9.09239C19.353 10.6931 18.1982 12.7169 15.8885 15.1637C12.6871 18.571 10.6061 20.2747 9.64566 20.2747C9.1883 20.2747 8.9482 20.1146 8.92533 19.7944Z" fill="#FFF06A"/>
</svg>
